<svg xmlns="http://www.w3.org/2000/svg" xmlns:xlink="http://www.w3.org/1999/xlink" width="800" height="20" role="img" aria-label="license: MIT">
<title>license: MIT</title>
<linearGradient id="s" x2="0" y2="100%">
    <stop offset="0" stop-color="#bbb" stop-opacity=".1"/>
    <stop offset="1" stop-opacity=".1"/>
</linearGradient>
<clipPath id="r"><rect width="800" height="20" rx="3" fill="#fff"/></clipPath>
<g clip-path="url(#r)">
    <rect width="492" height="20"  x="0" language="Go" fill="#00ADD8"/>
    <rect width="39" height="20"  x="492" language="YAML" fill="#cb171e"/>
    <rect width="37" height="20"  x="531" language="Makefile" fill="#427819"/>
    <rect width="15" height="20"  x="569" language="Bash" fill="#89e051"/>
    <rect width="48" height="20"  x="584" language="Markdown" fill="#083fa1"/>
    <rect width="40" height="20"  x="632" language="Other" fill="#fff"/>
    <rect width="1" height="20"  x="673" language="TOML" fill="#9c4221"/>
    <rect width="6" height="20"  x="674" language="Text" fill="#fff"/>
    <rect width="62" height="20"  x="680" language="Python" fill="#3572A5"/>
    <rect width="3" height="20"  x="742" language="Docker" fill="#384d54"/>
    <rect width="15" height="20"  x="745" language="TypeScript" fill="#2b7489"/>
    <rect width="1" height="20"  x="761" language="JSON" fill="#292929"/>
    <rect width="1" height="20"  x="763" language="Git Config" fill="#F44D27"/>
    <rect width="0" height="20"  x="764" language="JavaScript" fill="#f1e05a"/>
    <rect width="0" height="20"  x="765" language="INI" fill="#d1dbe0"/>
    <rect width="0" height="20"  x="765" language="Properties" fill="#fff"/>
    <rect width="17" height="20"  x="765" language="HTML" fill="#e34c26"/>
    <rect width="10" height="20"  x="783" language="XML" fill="#0060ac"/>
    <rect width="6" height="20"  x="793" language="SCSS" fill="#c6538c"/>
    <rect width="800" height="20" fill="url(#s)"/>
</g>
</svg>
